<?xml version="1.0" standalone="no"?>
<!DOCTYPE svg PUBLIC "-//W3C//DTD SVG 20010904//EN"
 "http://www.w3.org/TR/2001/REC-SVG-20010904/DTD/svg10.dtd">
<svg version="1.0" xmlns="http://www.w3.org/2000/svg"
 width="500.000000pt" height="500.000000pt" viewBox="0 0 500.000000 500.000000"
 preserveAspectRatio="xMidYMid meet">
<metadata>
Created by potrace 1.14, written by Peter Selinger 2001-2017
</metadata>
<g transform="translate(0.000000,500.000000) scale(0.100000,-0.100000)"
fill="#000000" stroke="none">
<path d="M2362 4868 c-23 -23 -7 -68 24 -68 14 0 44 27 44 40 0 13 -30 40 -44
40 -6 0 -17 -5 -24 -12z"/>
<path d="M3150 4845 c0 -8 9 -15 20 -15 24 0 27 15 4 24 -22 9 -24 8 -24 -9z"/>
<path d="M2810 4830 c0 -5 5 -10 10 -10 6 0 10 5 10 10 0 6 -4 10 -10 10 -5 0
-10 -4 -10 -10z"/>
<path d="M2130 4780 c0 -5 5 -10 10 -10 6 0 10 5 10 10 0 6 -4 10 -10 10 -5 0
-10 -4 -10 -10z"/>
<path d="M2458 4751 c-14 -13 -15 -20 -6 -29 18 -18 45 -15 50 6 11 41 -14 54
-44 23z"/>
<path d="M2983 4714 c-8 -21 13 -42 28 -27 13 13 5 43 -11 43 -6 0 -13 -7 -17
-16z"/>
<path d="M2157 4673 c-4 -3 -2 -12 4 -19 8 -10 4 -15 -18 -20 -257 -59 -471
-141 -666 -257 -43 -26 -83 -47 -87 -47 -5 0 -17 -8 -27 -18 -10 -10 -56 -48
-103 -84 -47 -36 -92 -73 -99 -82 -17 -20 -31 -21 -31 -1 0 8 -7 15 -15 15
-17 0 -20 -26 -4 -35 6 -4 -23 -42 -68 -88 -111 -116 -174 -198 -309 -397
-234 -348 -350 -654 -385 -1018 -11 -112 -13 -118 -43 -144 -25 -21 -28 -29
-19 -39 10 -10 17 -9 34 6 l21 19 -3 -74 c-3 -105 27 -311 67 -467 111 -436
378 -840 739 -1118 50 -38 95 -76 102 -85 7 -8 13 -12 13 -8 0 4 26 -9 58 -29
31 -20 112 -65 179 -98 82 -42 119 -65 112 -72 -7 -7 -5 -14 5 -22 18 -15 37
-6 30 14 -4 11 11 8 58 -11 173 -68 336 -101 693 -140 152 -16 432 -22 515
-10 218 32 389 73 540 132 96 37 211 91 220 104 5 6 39 24 123 65 21 10 49 29
63 42 13 12 61 50 107 84 126 95 331 307 406 422 40 61 67 93 72 86 4 -7 15
-9 24 -5 14 5 15 9 5 21 -7 8 -17 12 -23 8 -12 -7 -6 4 33 62 114 169 235 504
275 761 10 60 22 115 28 122 7 9 6 18 -6 29 -15 15 -18 15 -37 -2 -15 -14 -17
-21 -9 -31 6 -8 15 -11 20 -8 13 8 11 -10 -11 -138 -26 -147 -44 -213 -58
-214 -24 -3 -27 -6 -11 -12 15 -6 14 -16 -12 -92 -41 -121 -145 -325 -237
-465 -88 -134 -244 -312 -354 -405 -92 -77 -277 -202 -388 -263 -102 -55 -259
-119 -271 -111 -13 8 -50 -6 -44 -16 3 -4 -7 -11 -23 -14 -15 -4 -36 -9 -47
-12 -17 -4 -18 -3 -5 6 13 9 12 10 -5 6 -127 -33 -188 -46 -192 -43 -2 3 9 8
24 11 46 11 203 77 281 118 39 21 79 38 87 38 7 0 18 6 22 13 4 6 42 34 83 61
235 154 386 303 678 674 98 125 211 321 271 474 13 32 27 58 32 58 5 0 9 13 9
28 0 34 24 112 50 164 10 21 15 40 11 43 -10 6 16 124 31 142 6 8 7 13 1 13
-6 0 -7 18 -2 48 4 26 8 73 8 105 1 42 5 59 16 63 17 7 21 44 5 44 -5 0 -10
25 -10 55 0 54 -15 216 -25 282 -5 27 -3 31 14 26 15 -4 23 -19 30 -57 19 -92
33 -189 41 -286 l9 -95 -4 120 c-4 103 -22 237 -41 298 -5 15 1 15 51 -7 30
-14 75 -41 99 -61 29 -23 47 -32 51 -25 4 6 0 19 -9 29 -9 10 -16 26 -16 35 0
14 -5 17 -21 13 -12 -3 -46 7 -82 24 -34 16 -68 29 -76 29 -8 0 -11 6 -7 16 4
9 2 22 -3 28 -4 6 -16 36 -26 66 -10 30 -20 62 -23 70 -3 8 -2 12 3 8 4 -4 14
-3 20 2 18 15 -4 62 -27 57 -12 -4 -25 16 -52 82 -20 47 -75 156 -123 241 -47
85 -95 173 -107 194 -12 22 -28 47 -37 55 -8 9 -41 50 -72 92 -31 41 -92 114
-137 161 -47 51 -80 95 -80 107 0 16 -6 21 -25 21 -15 0 -54 24 -102 63 -43
34 -117 89 -165 121 -49 32 -88 62 -88 67 0 5 -12 12 -27 15 -14 4 -76 31
-137 60 -200 94 -410 158 -633 190 -112 16 -543 27 -543 13 0 -4 -24 -10 -52
-14 -29 -3 -61 -9 -70 -11 -12 -4 -15 0 -11 16 5 20 -15 29 -30 13z m753 -48
c123 -21 266 -57 376 -96 108 -37 334 -145 334 -159 0 -5 8 -10 18 -10 22 0
217 -132 217 -147 0 -6 4 -15 9 -20 5 -5 6 -3 2 5 -14 24 13 12 36 -17 13 -16
58 -56 101 -90 42 -34 77 -68 77 -76 0 -23 -8 -19 -82 41 -151 122 -358 244
-523 309 -68 27 -99 44 -92 52 5 5 141 -47 147 -56 3 -5 12 -8 20 -8 17 0 159
-67 240 -113 32 -19 44 -23 30 -11 -53 44 -319 170 -448 212 -115 37 -132 45
-126 61 8 26 -21 34 -52 14 -21 -15 -33 -16 -78 -6 -45 9 -52 14 -52 33 1 18
-4 21 -24 19 -14 -2 -30 -10 -37 -19 -17 -22 -89 -9 -96 18 -6 24 -33 25 -48
2 -9 -15 -22 -17 -77 -15 -37 2 -72 8 -78 13 -6 5 -15 4 -20 -1 -6 -6 -47 -13
-92 -17 -73 -5 -84 -4 -96 12 -14 20 -46 15 -46 -8 0 -13 -91 -32 -365 -78
-103 -17 -234 -48 -284 -67 -8 -3 -12 -1 -8 5 4 6 -2 18 -13 28 -18 17 -20 17
-26 1 -4 -10 -2 -22 4 -28 9 -9 -16 -23 -91 -53 -56 -23 -144 -63 -194 -88
-51 -26 -99 -47 -108 -47 -8 0 -15 -4 -15 -9 0 -4 -33 -30 -72 -56 -101 -67
-180 -128 -254 -198 -116 -108 -66 -43 64 84 134 131 267 239 295 239 9 0 21
8 26 18 11 21 174 115 286 165 148 66 247 98 283 92 24 -4 34 -2 38 9 6 15 35
25 110 41 29 6 31 4 27 -19 -4 -18 0 -28 12 -33 21 -8 48 24 42 49 -4 13 6 18
52 26 39 7 60 7 69 -1 10 -8 15 -8 20 0 12 18 58 21 267 18 124 -2 236 -10
295 -20z m-242 -112 c-21 -2 -57 -2 -80 0 -24 2 -7 4 37 4 44 0 63 -2 43 -4z
m432 -21 c143 -27 275 -63 260 -72 -7 -4 -51 3 -99 16 -124 35 -285 64 -403
74 l-103 9 120 -4 c66 -2 167 -13 225 -23z m-597 11 c-7 -2 -21 -2 -30 0 -10
3 -4 5 12 5 17 0 24 -2 18 -5z m-504 -77 c-2 -2 -54 -24 -115 -50 -115 -48
-241 -117 -352 -192 -62 -41 -67 -43 -84 -27 -17 15 -20 15 -34 1 -17 -16 -11
-43 7 -33 5 4 9 2 9 -3 0 -5 -35 -39 -79 -75 -156 -132 -325 -329 -431 -502
-47 -77 -170 -323 -170 -341 0 -6 -7 -17 -15 -24 -8 -7 -15 -22 -15 -34 0 -42
-46 -178 -64 -188 -12 -7 -14 -13 -7 -22 8 -9 5 -49 -9 -137 -11 -68 -22 -149
-25 -180 l-6 -57 -62 5 c-34 3 -63 7 -65 8 -2 2 2 13 8 25 9 18 9 28 -1 46
-36 68 66 614 114 606 23 -4 57 16 57 33 0 16 -35 29 -50 20 -6 -4 -4 10 5 32
10 21 21 50 27 65 8 23 14 27 34 22 47 -12 75 43 35 68 -19 11 -19 13 9 67 40
80 110 170 224 289 99 102 141 138 130 108 -9 -24 17 -30 39 -8 17 18 18 23 7
37 -8 10 -10 19 -4 23 5 4 43 32 84 63 153 113 326 207 503 273 127 48 316
100 296 82z m863 -18 c4 -31 46 -37 67 -10 16 21 16 20 121 -12 328 -101 593
-258 849 -501 71 -69 88 -90 83 -107 -3 -15 -2 -19 7 -14 17 11 36 -8 118
-118 99 -132 177 -266 239 -411 48 -110 110 -294 102 -299 -1 -1 -37 -15 -78
-31 -41 -17 -156 -79 -255 -138 -293 -178 -371 -210 -501 -210 -56 1 -85 7
-132 28 l-61 27 20 38 c26 49 34 137 17 170 -8 14 -24 26 -36 28 -19 3 -26 -4
-39 -37 -15 -38 -16 -39 -39 -25 -12 9 -35 14 -51 12 -22 -2 -29 -9 -31 -31
-4 -34 22 -72 83 -117 42 -31 44 -36 29 -47 -32 -23 -93 -15 -184 26 -135 61
-196 74 -325 68 -154 -7 -281 -54 -440 -162 -37 -26 -85 -53 -106 -60 l-39
-14 6 58 c8 68 -6 101 -40 101 -30 0 -102 -78 -142 -154 -16 -30 -30 -54 -31
-52 -1 1 2 30 8 65 7 49 21 79 58 135 104 155 221 394 236 483 15 92 -41 112
-112 38 -101 -106 -199 -390 -234 -682 -19 -164 -1 -175 66 -38 47 96 124 195
152 195 13 0 14 -8 9 -42 -14 -91 -28 -118 -69 -141 -46 -26 -70 -64 -56 -90
22 -39 94 2 125 71 13 32 25 41 68 56 28 10 75 34 104 52 280 180 510 210 750
98 94 -43 156 -53 200 -30 29 15 33 15 79 -8 76 -38 158 -49 240 -32 103 21
179 57 373 174 173 105 343 192 373 192 51 0 86 -489 52 -741 -38 -292 -148
-590 -304 -832 -71 -109 -86 -126 -103 -109 -18 18 -40 -5 -28 -28 8 -14 -1
-28 -48 -72 -118 -112 -364 -288 -403 -288 -9 0 -28 -11 -42 -24 -14 -13 -47
-31 -74 -41 -26 -9 -55 -21 -63 -26 -107 -62 -352 -133 -575 -164 -124 -18
-366 -20 -383 -3 -8 8 -15 8 -26 -2 -30 -24 -335 25 -522 84 -118 38 -225 84
-239 103 -7 9 -25 18 -41 19 -37 2 -203 97 -261 148 -36 32 -42 41 -31 53 10
12 9 18 -7 30 -11 7 -27 12 -37 10 -18 -5 -90 63 -94 88 -1 8 -18 34 -38 57
-20 23 -36 52 -36 64 0 13 -8 24 -18 26 -10 3 -39 36 -63 74 -112 170 -209
385 -259 576 -27 102 -27 106 -9 111 26 7 25 53 -1 67 -11 6 -20 7 -20 3 0 -4
-5 -1 -10 7 -12 21 -33 251 -28 317 l3 52 73 -55 c119 -90 172 -114 253 -114
38 0 84 6 102 14 41 18 104 72 95 81 -4 4 -26 -9 -49 -29 -106 -90 -212 -73
-396 66 -94 70 -90 58 -72 216 65 595 389 1129 884 1455 157 103 451 237 521
237 12 0 24 4 26 9 4 12 212 58 313 69 44 5 146 10 227 11 145 1 147 1 150
-21z m433 -48 c155 -45 194 -63 201 -92 6 -30 31 -38 41 -12 3 8 12 13 20 10
8 -3 11 -1 8 4 -11 18 7 11 103 -40 82 -44 272 -165 272 -174 0 -1 -10 -2 -21
-2 -29 1 -48 -28 -33 -52 25 -39 80 -19 69 26 -5 22 -1 21 46 -19 127 -106
159 -140 154 -162 -3 -12 0 -30 8 -41 11 -15 17 -16 34 -7 19 10 28 2 96 -82
111 -138 176 -240 220 -347 43 -105 101 -298 112 -372 l7 -48 -58 0 c-33 0
-69 -3 -81 -6 -16 -4 -23 0 -28 17 -5 14 -3 25 4 27 6 2 11 8 11 14 0 6 -6 8
-13 5 -9 -3 -22 22 -41 82 -41 128 -152 351 -240 480 -241 357 -558 614 -956
778 -101 41 -103 43 -55 38 28 -2 82 -14 120 -25z m932 -505 l46 -60 -78 76
c-50 49 -75 81 -70 89 8 13 20 1 102 -105z m-3626 -498 c-36 -84 -81 -236
-106 -359 -24 -119 -48 -379 -39 -415 4 -13 -7 -24 -42 -41 l-47 -22 6 97 c8
124 48 318 93 453 33 99 143 344 151 336 2 -2 -5 -24 -16 -49z m4069 -338 c0
-5 -6 -9 -13 -9 -10 0 -34 80 -54 180 -2 8 12 -25 32 -73 19 -49 35 -93 35
-98z m-2312 104 c4 -50 -30 -142 -107 -288 -65 -124 -141 -248 -148 -241 -7 6
52 231 83 317 53 146 127 266 158 256 6 -2 12 -22 14 -44z m2286 -225 c4 -18
9 -129 13 -245 5 -189 4 -216 -11 -239 -12 -18 -14 -29 -7 -38 16 -19 -22
-236 -40 -236 -6 0 -8 -9 -4 -20 13 -39 -144 -448 -167 -434 -5 3 -16 0 -25
-8 -14 -11 -15 -11 -10 2 3 8 11 31 18 51 7 22 21 41 35 48 25 11 32 39 14 57
-13 13 17 117 31 108 14 -8 39 15 39 37 0 10 -8 20 -18 23 -18 6 -18 11 -6 75
22 114 37 330 30 427 -6 84 -6 92 11 90 20 -1 30 31 14 47 -9 9 -14 8 -21 -3
-12 -19 -13 -14 -34 120 -9 58 -19 117 -22 132 -7 31 3 35 92 37 l62 1 6 -32z
m-1203 -90 c14 -26 6 -106 -16 -148 l-16 -31 -30 18 c-66 38 -119 119 -90 137
4 3 25 -4 47 -14 46 -24 54 -25 54 -6 0 24 19 66 29 66 6 0 15 -10 22 -22z
m-2864 -264 l30 -6 6 -166 c4 -97 15 -214 27 -279 11 -61 17 -119 14 -127 -3
-9 0 -23 7 -32 7 -9 32 -73 55 -142 23 -70 64 -178 92 -241 57 -128 56 -129
-18 -16 -88 136 -203 391 -234 520 -7 28 -7 29 12 12 10 -9 23 -17 29 -17 14
0 24 26 17 45 -7 18 -50 20 -60 3 -12 -18 -36 100 -25 120 7 12 4 26 -9 47
-23 39 -35 122 -20 140 8 9 8 15 0 20 -6 3 -8 10 -5 15 3 5 1 11 -5 15 -14 9
-12 82 3 88 17 8 50 8 84 1z m-119 -69 c-2 -36 -1 -65 3 -65 12 0 21 -141 9
-155 -8 -10 -6 -18 8 -32 10 -10 24 -45 32 -78 50 -232 190 -532 345 -739 196
-261 329 -420 428 -511 65 -59 86 -84 81 -97 -6 -20 24 -38 35 -20 4 6 29 -7
66 -35 33 -24 86 -61 118 -80 37 -23 53 -39 46 -44 -7 -4 -9 -14 -6 -24 8 -18
27 -11 27 10 0 10 33 -3 103 -39 56 -30 135 -67 175 -82 63 -24 71 -30 53 -38
-15 -6 -49 -1 -118 19 -277 78 -544 219 -768 407 -119 99 -247 234 -243 256 2
11 -4 18 -17 20 -21 3 -100 105 -173 222 -61 98 -156 301 -196 420 -59 178
-106 458 -106 646 0 50 1 51 48 77 26 15 49 27 51 27 2 0 1 -29 -1 -65z m1751
-74 c-6 -16 -21 -39 -34 -51 -22 -20 -25 -21 -31 -6 -9 24 2 44 38 66 18 11
34 20 35 20 1 0 -3 -13 -8 -29z m2152 -848 c-72 -119 -83 -121 -29 -6 43 90
55 108 62 92 7 -14 -1 -35 -33 -86z m-406 -516 c-31 -48 -221 -209 -349 -296
-81 -55 -90 -59 -102 -43 -11 16 -14 16 -33 -3 -12 -10 -19 -25 -17 -32 4 -8
-16 -24 -54 -43 -33 -17 -60 -26 -60 -20 0 5 -5 10 -11 10 -13 0 -39 -25 -39
-38 0 -17 -117 -55 -146 -48 -20 5 -27 3 -31 -13 -4 -15 -29 -26 -116 -50
-131 -36 -230 -42 -246 -13 -9 16 -11 16 -39 0 -29 -17 -121 -25 -135 -12 -3
3 -41 7 -84 9 -99 4 -246 35 -391 81 -87 28 -110 39 -102 49 6 7 8 19 5 27 -5
13 0 14 40 5 34 -8 49 -17 55 -33 13 -33 27 -37 49 -15 18 18 23 18 108 5 138
-21 353 -28 493 -15 249 23 527 97 735 196 61 28 94 39 102 33 15 -12 33 -2
33 17 0 8 51 47 113 89 61 41 139 97 172 124 70 59 70 59 50 29z m-2325 -283
c0 -2 -9 0 -20 6 -11 6 -20 13 -20 16 0 2 9 0 20 -6 11 -6 20 -13 20 -16z
m103 -42 c50 -21 62 -30 52 -39 -10 -9 -26 -3 -71 24 -33 19 -61 37 -63 39
-12 11 24 1 82 -24z m168 -63 c64 -21 66 -22 47 -41 -18 -18 -20 -18 -68 3
-28 12 -47 26 -43 32 3 5 -3 17 -13 25 -11 8 -13 12 -4 9 8 -3 45 -16 81 -28z
m217 -237 c-23 -5 -91 13 -95 25 -3 7 16 5 52 -6 31 -9 50 -17 43 -19z"/>
<path d="M1830 4500 c0 -5 5 -10 10 -10 6 0 10 5 10 10 0 6 -4 10 -10 10 -5 0
-10 -4 -10 -10z"/>
<path d="M1243 4083 c-16 -6 -17 -39 -2 -49 6 -3 20 3 31 14 29 29 10 52 -29
35z"/>
<path d="M1124 3909 c-10 -17 13 -36 27 -22 12 12 4 33 -11 33 -5 0 -12 -5
-16 -11z"/>
<path d="M964 3835 c-15 -32 2 -49 32 -32 17 10 20 17 13 35 -11 29 -31 28
-45 -3z"/>
<path d="M891 3711 c-15 -10 -6 -51 12 -51 13 0 38 46 29 55 -8 7 -25 6 -41
-4z"/>
<path d="M756 3364 c-22 -16 -14 -44 13 -44 17 0 31 18 31 40 0 15 -26 18 -44
4z"/>
<path d="M2407 4344 c-14 -14 -7 -25 13 -22 12 2 21 8 21 13 0 12 -24 18 -34
9z"/>
<path d="M3120 4320 c0 -5 5 -10 10 -10 6 0 10 5 10 10 0 6 -4 10 -10 10 -5 0
-10 -4 -10 -10z"/>
<path d="M4182 3460 c-14 -22 -8 -40 12 -40 22 0 36 22 25 42 -13 23 -21 23
-37 -2z"/>
<path d="M956 3142 c-3 -6 -1 -14 5 -17 15 -10 25 3 12 16 -7 7 -13 7 -17 1z"/>
<path d="M1784 3129 c-33 -9 -107 -82 -126 -124 -6 -14 -19 -25 -29 -25 -38 0
-207 -61 -264 -95 -33 -20 -77 -53 -98 -73 -48 -47 -96 -142 -103 -207 -11
-88 31 -185 79 -185 19 0 18 2 -9 19 -62 37 -71 169 -19 271 54 107 180 194
344 239 41 12 76 19 77 18 2 -2 -3 -25 -11 -52 -22 -71 -20 -182 5 -222 41
-69 97 -67 170 6 26 26 68 83 93 127 34 58 46 71 42 49 -3 -16 -12 -82 -20
-145 -61 -463 -208 -711 -421 -711 -230 0 -302 293 -119 485 60 62 152 106
222 106 44 0 58 -5 85 -29 29 -25 33 -36 32 -75 -2 -75 -57 -139 -137 -156
l-42 -9 47 3 c58 4 100 33 127 89 55 114 -9 208 -132 193 -156 -18 -304 -172
-323 -337 -13 -110 39 -214 130 -262 59 -31 172 -30 241 3 106 51 200 178 260
354 65 191 121 586 83 586 -7 0 -35 -42 -63 -93 -64 -118 -156 -217 -203 -217
-21 0 -35 6 -42 19 -15 30 -11 168 8 235 l17 58 74 23 c102 33 158 90 118 123
-20 17 -59 21 -93 11z m80 -22 c17 -12 16 -15 -9 -45 -18 -22 -45 -38 -88 -51
-34 -10 -64 -17 -66 -15 -12 11 53 84 91 103 51 25 49 25 72 8z"/>
<path d="M2310 2257 c-54 -27 -48 -113 10 -127 46 -11 75 3 78 38 2 24 -1 32
-12 32 -10 0 -16 -9 -16 -25 0 -19 -5 -25 -23 -25 -29 0 -47 18 -47 46 0 31
25 48 60 41 38 -8 49 10 15 23 -33 13 -35 12 -65 -3z"/>
<path d="M2516 2263 c-3 -3 -6 -35 -6 -70 l0 -63 50 0 c28 0 50 5 50 10 0 6
-16 10 -35 10 l-35 0 0 54 c0 51 -9 74 -24 59z"/>
<path d="M2729 2207 c-18 -37 -29 -70 -25 -74 4 -4 13 0 20 10 16 21 72 23 80
2 3 -8 12 -15 20 -15 12 0 10 12 -10 58 -42 94 -48 95 -85 19z m45 -25 c-22
-5 -27 3 -19 29 l7 22 14 -24 c11 -20 10 -25 -2 -27z"/>
<path d="M3041 2225 l-30 -47 -23 41 c-34 60 -48 53 -48 -24 0 -37 4 -65 10
-65 6 0 10 19 10 43 l1 42 22 -37 c12 -21 25 -38 29 -38 4 0 15 15 25 33 l18
32 3 -37 c2 -25 8 -38 18 -38 11 0 14 15 14 64 0 36 -4 68 -10 71 -5 3 -23
-15 -39 -40z"/>
<path d="M3210 2201 l0 -71 50 0 c40 0 51 4 60 21 8 14 8 24 1 33 -6 6 -8 21
-5 32 7 30 -8 43 -59 50 l-47 7 0 -72z m80 24 c0 -10 -10 -15 -30 -15 -20 0
-30 5 -30 15 0 10 10 15 30 15 20 0 30 -5 30 -15z m8 -57 c-7 -20 -68 -23 -68
-4 0 12 10 16 36 16 24 0 34 -4 32 -12z"/>
<path d="M3440 2201 l0 -71 50 0 c28 0 50 5 50 10 0 6 -18 10 -40 10 -50 0
-57 27 -8 32 46 4 49 28 4 28 -25 0 -36 4 -36 15 0 11 11 15 41 15 58 0 46 24
-14 28 l-47 3 0 -70z"/>
<path d="M3658 2264 c-5 -4 -8 -36 -8 -71 l0 -63 50 0 c28 0 50 5 50 10 0 6
-18 10 -40 10 l-39 0 -3 61 c-2 33 -6 57 -10 53z"/>
<path d="M3857 2264 c-4 -4 -7 -36 -7 -71 l0 -63 50 0 c28 0 50 5 50 10 0 6
-18 10 -40 10 -50 0 -57 27 -8 32 46 4 49 28 4 28 -25 0 -36 4 -36 15 0 11 11
15 41 15 28 0 39 4 37 13 -5 13 -79 22 -91 11z"/>
<path d="M4057 2263 c-15 -14 -5 -22 29 -25 l36 -3 -36 -45 c-20 -25 -36 -48
-36 -52 0 -5 27 -8 60 -8 67 0 83 17 20 22 l-40 3 35 44 c48 60 46 71 -13 71
-27 0 -52 -3 -55 -7z"/>
<path d="M4289 2207 c-18 -37 -29 -70 -25 -74 4 -4 13 0 20 10 16 21 26 21 62
2 50 -26 55 -19 28 43 -42 94 -48 95 -85 19z m45 -25 c-22 -5 -27 3 -19 29 l7
22 14 -24 c11 -20 10 -25 -2 -27z"/>
<path d="M4444 2159 c-10 -17 13 -36 27 -22 12 12 4 33 -11 33 -5 0 -12 -5
-16 -11z"/>
<path d="M4142 1978 c-18 -18 -14 -28 8 -28 11 0 20 6 20 14 0 21 -15 27 -28
14z"/>
<path d="M4254 1795 c-4 -9 -2 -21 4 -27 15 -15 44 -1 40 19 -4 23 -36 29 -44
8z"/>
<path d="M4122 1621 c4 -13 18 -16 19 -4 0 4 -5 9 -11 12 -7 2 -11 -2 -8 -8z"/>
<path d="M1205 1331 c-3 -5 -1 -12 5 -16 5 -3 10 1 10 9 0 18 -6 21 -15 7z"/>
<path d="M1353 1163 c-21 -8 -16 -61 6 -68 28 -8 51 5 51 29 0 36 -25 53 -57
39z"/>
<path d="M3519 1009 c-9 -18 -7 -25 10 -43 17 -16 25 -18 39 -10 9 6 19 21 20
34 6 41 -49 56 -69 19z"/>
<path d="M3660 950 c-11 -20 -6 -40 9 -40 19 0 42 27 35 43 -8 23 -31 22 -44
-3z"/>
<path d="M1500 915 c-16 -20 -5 -45 20 -45 22 0 23 3 14 38 -7 26 -17 28 -34
7z"/>
<path d="M1890 824 c0 -8 5 -12 10 -9 6 4 8 11 5 16 -9 14 -15 11 -15 -7z"/>
<path d="M3350 830 c0 -5 5 -10 10 -10 6 0 10 5 10 10 0 6 -4 10 -10 10 -5 0
-10 -4 -10 -10z"/>
<path d="M2565 750 c-8 -12 20 -24 35 -15 6 3 8 11 5 16 -8 12 -32 12 -40 -1z"/>
<path d="M2096 731 c-14 -15 -15 -24 -6 -40 19 -37 70 -23 70 19 0 25 -15 40
-39 40 -4 0 -16 -9 -25 -19z"/>
<path d="M1830 716 c0 -10 9 -16 21 -16 24 0 21 23 -4 28 -10 2 -17 -3 -17
-12z"/>
<path d="M2245 639 c-10 -15 3 -25 16 -12 7 7 7 13 1 17 -6 3 -14 1 -17 -5z"/>
<path d="M2820 632 c0 -24 8 -32 26 -25 19 7 18 29 -2 37 -23 9 -24 8 -24 -12z"/>
<path d="M4086 3821 c-7 -11 18 -33 27 -24 4 3 7 12 7 20 0 15 -26 18 -34 4z"/>
<path d="M4175 3660 c-8 -13 13 -50 29 -50 22 0 27 39 6 50 -23 12 -27 12 -35
0z"/>
<path d="M4276 3491 c-4 -5 -2 -12 3 -15 5 -4 12 -2 15 3 4 5 2 12 -3 15 -5 4
-12 2 -15 -3z"/>
<path d="M4350 3435 c-9 -11 -10 -19 -2 -27 14 -14 32 -1 32 23 0 23 -13 25
-30 4z"/>
<path d="M4460 3271 c-8 -17 -7 -24 10 -41 28 -28 63 -11 58 28 -4 35 -51 44
-68 13z"/>
<path d="M4575 3011 c-8 -15 3 -31 21 -31 9 0 14 7 12 17 -4 20 -24 28 -33 14z"/>
<path d="M380 2574 c0 -8 5 -12 10 -9 6 3 10 10 10 16 0 5 -4 9 -10 9 -5 0
-10 -7 -10 -16z"/>
<path d="M4597 2805 c-5 -29 16 -46 35 -27 14 14 6 46 -13 50 -11 2 -18 -6
-22 -23z"/>
<path d="M4635 2631 c-3 -5 -1 -12 5 -16 5 -3 10 1 10 9 0 18 -6 21 -15 7z"/>
<path d="M566 2261 c-7 -11 18 -33 27 -24 4 3 7 12 7 20 0 15 -26 18 -34 4z"/>
<path d="M467 1957 c-3 -8 -2 -20 3 -27 11 -18 42 -4 38 17 -4 22 -34 29 -41
10z"/>
<path d="M502 1731 c4 -13 18 -16 19 -4 0 4 -5 9 -11 12 -7 2 -11 -2 -8 -8z"/>
<path d="M713 1509 c-6 -6 -9 -18 -6 -25 7 -19 33 -18 33 1 0 8 0 18 1 22 1
13 -16 14 -28 2z"/>
<path d="M867 1233 c-13 -12 -7 -23 13 -23 11 0 20 7 20 15 0 15 -21 21 -33 8z"/>
<path d="M1130 920 c0 -16 5 -21 23 -18 12 2 22 10 22 18 0 8 -10 16 -22 18
-18 3 -23 -2 -23 -18z"/>
<path d="M2850 525 c0 -8 7 -15 15 -15 8 0 15 7 15 15 0 8 -7 15 -15 15 -8 0
-15 -7 -15 -15z"/>
<path d="M3360 4661 c0 -15 6 -21 21 -21 14 0 19 5 17 17 -5 26 -38 29 -38 4z"/>
<path d="M1781 4606 c-17 -20 -2 -48 23 -44 27 4 32 30 7 45 -15 10 -22 9 -30
-1z"/>
<path d="M3360 4555 c0 -10 7 -15 18 -13 21 4 19 22 -2 26 -10 2 -16 -3 -16
-13z"/>
<path d="M4180 4340 c0 -5 5 -10 10 -10 6 0 10 5 10 10 0 6 -4 10 -10 10 -5 0
-10 -4 -10 -10z"/>
<path d="M1013 4203 c-17 -6 -16 -30 1 -36 18 -7 26 1 26 25 0 18 -5 20 -27
11z"/>
<path d="M4190 4135 c-15 -18 -5 -35 21 -35 12 0 19 7 19 19 0 24 -25 34 -40
16z"/>
<path d="M4406 4085 c-3 -9 1 -18 10 -22 19 -7 28 2 21 22 -8 19 -23 19 -31 0z"/>
<path d="M752 4083 c-10 -4 -10 -8 -1 -19 13 -16 29 -10 29 12 0 15 -6 16 -28
7z"/>
<path d="M803 3879 c-16 -16 -5 -39 19 -39 14 0 19 6 16 22 -4 25 -19 33 -35
17z"/>
<path d="M4395 3810 c-8 -13 14 -42 26 -34 5 3 9 14 9 25 0 20 -24 26 -35 9z"/>
<path d="M620 3750 c0 -5 5 -10 10 -10 6 0 10 5 10 10 0 6 -4 10 -10 10 -5 0
-10 -4 -10 -10z"/>
<path d="M4856 3461 c-4 -5 -2 -12 3 -15 5 -4 12 -2 15 3 4 5 2 12 -3 15 -5 4
-12 2 -15 -3z"/>
<path d="M420 3430 c0 -5 5 -10 10 -10 6 0 10 5 10 10 0 6 -4 10 -10 10 -5 0
-10 -4 -10 -10z"/>
<path d="M4596 3332 c-10 -16 7 -52 24 -52 25 0 33 38 10 50 -23 12 -27 12
-34 2z"/>
<path d="M441 3316 c-12 -14 -5 -26 16 -26 15 0 18 26 4 34 -5 3 -14 0 -20 -8z"/>
<path d="M46 3291 c-10 -16 5 -41 24 -41 25 0 35 18 20 35 -14 17 -36 20 -44
6z"/>
<path d="M253 3259 c-28 -10 -29 -25 -5 -38 20 -11 42 3 42 25 0 19 -12 23
-37 13z"/>
<path d="M4781 3256 c-9 -10 -8 -16 4 -26 19 -16 41 1 32 24 -8 20 -21 20 -36
2z"/>
<path d="M438 3253 c-23 -6 -24 -51 -2 -60 22 -8 57 36 42 54 -11 13 -12 14
-40 6z"/>
<path d="M80 3180 c0 -5 7 -10 16 -10 8 0 12 5 9 10 -3 6 -10 10 -16 10 -5 0
-9 -4 -9 -10z"/>
<path d="M4974 3135 c-7 -17 4 -37 17 -30 12 8 12 45 -1 45 -6 0 -13 -7 -16
-15z"/>
<path d="M7 3133 c-15 -15 -6 -43 13 -43 11 0 20 6 20 14 0 17 -24 38 -33 29z"/>
<path d="M322 3094 c4 -21 22 -23 26 -1 2 10 -3 17 -13 17 -10 0 -15 -6 -13
-16z"/>
<path d="M365 3010 c-9 -14 0 -23 26 -27 15 -2 20 2 17 14 -4 21 -33 29 -43
13z"/>
<path d="M4766 2853 c-12 -12 -6 -33 9 -33 8 0 15 6 15 14 0 17 -14 28 -24 19z"/>
<path d="M294 2645 c-3 -8 -3 -19 1 -25 9 -14 35 6 35 26 0 19 -29 18 -36 -1z"/>
<path d="M4773 2380 c0 -25 2 -35 4 -22 2 12 2 32 0 45 -2 12 -4 2 -4 -23z"/>
<path d="M260 2265 c0 -16 6 -25 15 -25 8 0 15 9 15 19 0 10 -7 21 -15 25 -11
4 -15 -1 -15 -19z"/>
<path d="M260 1980 c0 -13 5 -20 13 -17 6 2 12 10 12 17 0 7 -6 15 -12 18 -8
2 -13 -5 -13 -18z"/>
<path d="M4528 1680 c-19 -15 -21 -22 -12 -37 7 -11 23 -18 40 -18 24 0 30 5
32 27 5 39 -28 54 -60 28z"/>
<path d="M4642 1488 c-28 -28 -1 -75 37 -63 25 8 34 31 21 56 -12 21 -40 25
-58 7z"/>
<path d="M4410 1400 c0 -5 5 -10 10 -10 6 0 10 5 10 10 0 6 -4 10 -10 10 -5 0
-10 -4 -10 -10z"/>
<path d="M4742 1374 c-16 -18 -9 -44 12 -44 9 0 20 9 26 20 19 36 -11 55 -38
24z"/>
<path d="M4607 1303 c-10 -9 -9 -51 1 -57 12 -7 52 22 52 38 0 20 -39 34 -53
19z"/>
<path d="M4446 1227 c-21 -15 -14 -57 9 -57 21 0 46 45 32 59 -14 14 -19 14
-41 -2z"/>
<path d="M4258 1213 c-24 -6 -23 -20 2 -33 25 -13 40 -5 40 21 0 19 -8 21 -42
12z"/>
<path d="M4734 1179 c-3 -6 0 -17 7 -25 18 -17 44 -2 36 20 -7 18 -33 21 -43
5z"/>
<path d="M4966 1181 c-4 -5 -2 -12 3 -15 5 -4 12 -2 15 3 4 5 2 12 -3 15 -5 4
-12 2 -15 -3z"/>
<path d="M4110 1120 c0 -5 5 -10 10 -10 6 0 10 5 10 10 0 6 -4 10 -10 10 -5 0
-10 -4 -10 -10z"/>
<path d="M4346 1071 c-7 -11 18 -33 27 -24 4 3 7 12 7 20 0 15 -26 18 -34 4z"/>
<path d="M4037 1063 c-21 -20 7 -49 33 -33 11 7 10 11 -3 24 -17 18 -21 19
-30 9z"/>
<path d="M4407 994 c-16 -16 -6 -35 16 -32 12 2 22 10 22 18 0 16 -26 25 -38
14z"/>
<path d="M4690 965 c-10 -12 -9 -16 5 -21 23 -9 40 10 22 25 -11 9 -17 8 -27
-4z"/>
<path d="M920 883 c0 -5 5 -15 10 -23 7 -11 12 -12 21 -3 6 6 8 16 5 22 -8 12
-36 15 -36 4z"/>
<path d="M3946 882 c-3 -6 -1 -14 5 -17 15 -10 25 3 12 16 -7 7 -13 7 -17 1z"/>
<path d="M3740 771 c0 -24 25 -34 40 -16 15 18 5 35 -21 35 -12 0 -19 -7 -19
-19z"/>
<path d="M3795 559 c-4 -6 -4 -13 -1 -16 8 -8 36 5 36 17 0 13 -27 13 -35 -1z"/>
<path d="M3533 455 c-3 -9 -3 -18 0 -21 9 -9 48 16 42 27 -9 14 -35 11 -42 -6z"/>
<path d="M3170 346 c0 -8 5 -18 10 -21 13 -8 42 14 34 26 -9 15 -44 10 -44 -5z"/>
<path d="M1807 313 c-8 -7 11 -33 24 -33 5 0 9 9 9 20 0 19 -20 27 -33 13z"/>
<path d="M3055 310 c-9 -14 13 -50 30 -50 20 0 19 46 -1 54 -21 8 -22 8 -29
-4z"/>
<path d="M2160 290 c0 -5 4 -10 9 -10 6 0 13 5 16 10 3 6 -1 10 -9 10 -9 0
-16 -4 -16 -10z"/>
<path d="M2415 284 c-19 -20 -16 -43 8 -58 34 -22 73 27 47 59 -16 19 -35 19
-55 -1z"/>
<path d="M2685 230 c-3 -5 -1 -10 4 -10 6 0 11 5 11 10 0 6 -2 10 -4 10 -3 0
-8 -4 -11 -10z"/>
</g>
</svg>
